# xmcd
#
# Track frame offsets:
#	150
#	11959
#	22927
#	33583
#	43527
#	56258
#	69061
#	80866
#	90210
#	102281
#	111479
#	125989
#	138685
#	149480
#	164449
#	175536
#	185377
#	197499
#	207163
#	221292
#
# Disc length: 3114 seconds
# Revision: 0
# Processed by: cddbd v1.5.2PL0 Copyright (c) Steve Scherf et al.
# Submitted via: dBpowerAMP V12.0
#
DISCID=190c2814
DTITLE=Golden Gate Quartet - Rock My Soul [Acrobat]
DYEAR=2003
DGENRE=Religious
TTITLE0=Golden Gate Gospel Train
TTITLE1=Jonah in the Whale
TTITLE2=Go Where I Send Thee
TTITLE3=Sampson
TTITLE4=Massas in the Cold Cold Ground
TTITLE5=Preacher and the Bear
TTITLE6=Noah
TTITLE7=Our Father
TTITLE8=Job
TTITLE9=Rock My Soul
TTITLE10=Stalin Wasn't Stallin
TTITLE11=Jezebel
TTITLE12=Dip Your Fingers in the Water
TTITLE13=He Never Said a Mumblin' Word
TTITLE14=Didn't It Rain
TTITLE15=The Sun Didn't Shine
TTITLE16=Anyhow
TTITLE17=Blind Barnabas
TTITLE18=Comin' in on a Wing and a Prayer
TTITLE19=Times Windin' Up
EXTD=
EXTT0=
EXTT1=
EXTT2=
EXTT3=
EXTT4=
EXTT5=
EXTT6=
EXTT7=
EXTT8=
EXTT9=
EXTT10=
EXTT11=
EXTT12=
EXTT13=
EXTT14=
EXTT15=
EXTT16=
EXTT17=
EXTT18=
EXTT19=
PLAYORDER=
